<svg width="18" height="18" viewBox="0 0 18 18" fill="none" xmlns="http://www.w3.org/2000/svg">
<path d="M8.96198 17.9968H9.03374C12.6076 17.9968 14.6821 17.637 16.1515 16.2104C17.6498 14.6971 17.9958 12.6087 17.9958 9.04873V8.94806C17.9958 5.38918 17.6498 3.31469 16.1515 1.7864C14.6831 0.35985 12.5937 0 9.03481 0H8.96305C5.38919 0 3.31362 0.35985 1.84423 1.7864C0.345928 3.2997 0 5.38918 0 8.94806V9.04873C0 12.6076 0.345928 14.6821 1.84423 16.2104C3.2997 17.637 5.38919 17.9968 8.96198 17.9968Z" fill="#FFD479"/>
<path d="M15.8534 8.86209C15.8534 8.79356 15.7977 8.73681 15.7291 8.7336C13.2694 8.64042 11.7724 8.32668 10.7251 7.27939C9.67568 6.22997 9.363 4.73186 9.26984 2.26679C9.2677 2.19826 9.21093 2.14258 9.14133 2.14258H8.85435C8.78582 2.14258 8.72906 2.19826 8.72585 2.26679C8.63268 4.73079 8.32 6.22997 7.27058 7.27939C6.22223 8.32775 4.72626 8.64042 2.26655 8.7336C2.19801 8.73574 2.14233 8.79249 2.14233 8.86209V9.14908C2.14233 9.21762 2.19801 9.27437 2.26655 9.27758C4.72626 9.37074 6.22329 9.6845 7.27058 10.7318C8.31785 11.7791 8.63054 13.2729 8.72478 15.7283C8.72691 15.7968 8.78367 15.8525 8.85328 15.8525H9.14133C9.20986 15.8525 9.26662 15.7968 9.26984 15.7283C9.36407 13.2729 9.67676 11.7791 10.7241 10.7318C11.7724 9.68343 13.2683 9.37074 15.7281 9.27758C15.7966 9.27544 15.8523 9.21869 15.8523 9.14908V8.86209H15.8534Z" fill="black"/>
</svg>
